<?xml version="1.0" standalone="no"?><svg xmlns="http://www.w3.org/2000/svg" viewBox="0 0 1440 320"><path fill="#fff" fill-opacity="1" d="M0,64L16,58.7C32,53,64,43,96,53.3C128,64,160,96,192,112C224,128,256,128,288,149.3C320,171,352,213,384,240C416,267,448,277,480,240C512,203,544,117,576,101.3C608,85,640,139,672,186.7C704,235,736,277,768,293.3C800,309,832,299,864,282.7C896,267,928,245,960,202.7C992,160,1024,96,1056,101.3C1088,107,1120,181,1152,192C1184,203,1216,149,1248,112C1280,75,1312,53,1344,58.7C1376,64,1408,96,1424,112L1440,128L1440,320L1424,320C1408,320,1376,320,1344,320C1312,320,1280,320,1248,320C1216,320,1184,320,1152,320C1120,320,1088,320,1056,320C1024,320,992,320,960,320C928,320,896,320,864,320C832,320,800,320,768,320C736,320,704,320,672,320C640,320,608,320,576,320C544,320,512,320,480,320C448,320,416,320,384,320C352,320,320,320,288,320C256,320,224,320,192,320C160,320,128,320,96,320C64,320,32,320,16,320L0,320Z"></path></svg>